<?xml version="1.0" encoding="utf-8"?>
<!-- Generator: Adobe Illustrator 15.0.2, SVG Export Plug-In . SVG Version: 6.00 Build 0)  -->
<!DOCTYPE svg PUBLIC "-//W3C//DTD SVG 1.1//EN" "http://www.w3.org/Graphics/SVG/1.1/DTD/svg11.dtd">
<svg version="1.1" id="Layer_1" xmlns="http://www.w3.org/2000/svg" xmlns:xlink="http://www.w3.org/1999/xlink" x="0px" y="0px"
	 width="300px" height="300px" viewBox="0 0 300 300" enable-background="new 0 0 300 300" xml:space="preserve">
<g>
	<path fill="#49D6C9" stroke="#4D87C7" stroke-miterlimit="10" d="M151.123,14.8c-74.557,0-134.998,60.44-134.998,135.002
		c0,74.554,60.44,134.998,134.998,134.998c74.559,0,135.002-60.442,135.002-134.998C286.125,75.241,225.682,14.8,151.123,14.8z
		 M151.123,265.714c-64.013,0-115.911-51.901-115.911-115.912c0-64.018,51.898-115.911,115.911-115.911
		c64.02,0,115.912,51.894,115.912,115.911C267.035,213.812,215.143,265.714,151.123,265.714z"/>
	<circle fill="#49D6C9" stroke="#4D87C7" stroke-miterlimit="10" cx="151.125" cy="149.802" r="104.431"/>
	<g>
		<path stroke="#4D87C7" stroke-miterlimit="10" d="M139.156,93.922c3.02-2.791,6.638-4.183,10.829-4.183
			c4.195,0,7.785,1.392,10.792,4.183c2.996,2.804,4.496,6.161,4.496,10.091c0,3.931-1.517,7.279-4.539,10.051
			c-3.021,2.768-6.603,4.151-10.75,4.151c-4.183,0-7.801-1.379-10.829-4.151c-3.024-2.771-4.536-6.12-4.536-10.051
			C134.62,100.083,136.132,96.726,139.156,93.922z"/>
		<path stroke="#4D87C7" stroke-miterlimit="10" d="M176.604,209.861h-49.045v-5.663
			c1.347-0.101,2.663-0.236,3.962-0.39c1.287-0.16,2.402-0.412,3.329-0.777c1.665-0.613,2.824-1.516,3.505-2.68
			c0.666-1.162,1.011-2.699,1.011-4.615v-45.172c0-1.81-0.417-3.394-1.239-4.766c-0.83-1.38-1.869-2.483-3.108-3.305
			c-0.926-0.618-2.346-1.215-4.227-1.789c-1.885-0.565-3.609-0.922-5.158-1.083v-5.659l38.029-2.018l1.163,1.159v61.621
			c0,1.812,0.393,3.344,1.157,4.615c0.783,1.268,1.891,2.206,3.342,2.835c1.035,0.466,2.183,0.888,3.412,1.239
			c1.248,0.365,2.535,0.618,3.884,0.777v5.668h-0.017V209.861z"/>
	</g>
</g>
</svg>
